<?xml version="1.0" encoding="UTF-8"?>
<svg version="1.1" xmlns="http://www.w3.org/2000/svg" width="970" height="257">
<path d="M0 0 C0.76634766 0.15919922 1.53269531 0.31839844 2.32226562 0.48242188 C21.02357667 4.49579317 39.78702304 13.43813751 55 25 C55.7528125 25.5465625 56.505625 26.093125 57.28125 26.65625 C80.08218367 43.67666527 80.08218367 43.67666527 81.625 52.625 C81 56 81 56 79.15625 57.85546875 C74.62213978 60.93619463 69.79209136 63.27997472 64.875 65.6875 C63.87339844 66.18572266 62.87179688 66.68394531 61.83984375 67.19726562 C50.44803726 72.83200481 50.44803726 72.83200481 44 72 C40.74193998 69.98369115 37.9168189 67.47530364 35 65 C9.30785962 44.4544569 -23.65881054 37.99854062 -55.97851562 41.3046875 C-67.50149082 42.92368617 -78.3434378 46.40486267 -89 51 C-90.58361328 51.67675781 -90.58361328 51.67675781 -92.19921875 52.3671875 C-109.32062515 60.29003438 -124.4109756 73.71352629 -131.25 91.5 C-136.02626981 105.59098686 -136.14577163 119.88548619 -136.09765625 134.6015625 C-136.09578778 136.29120847 -136.09436591 137.980855 -136.09336853 139.67050171 C-136.0895771 144.08613621 -136.07977618 148.50173706 -136.06866455 152.9173584 C-136.05837734 157.43578639 -136.05385535 161.95421989 -136.04882812 166.47265625 C-136.03815041 175.3151195 -136.02111523 184.15755554 -136 193 C-138.35913086 193.58837891 -138.35913086 193.58837891 -141 194 C-144.81819898 191.60452681 -147.83968199 188.19548149 -151 185 C-151.48452637 184.52191895 -151.96905273 184.04383789 -152.46826172 183.55126953 C-171.8043657 164.36657387 -183.80711692 138.55815764 -184.25 111.0625 C-183.89464325 82.98931686 -171.31194853 57.88085908 -152.1875 37.8125 C-140.99131948 27.20321604 -128.52914035 19.28965973 -115 12 C-113.93652344 11.41347656 -112.87304688 10.82695312 -111.77734375 10.22265625 C-77.71344197 -7.06145003 -36.52791067 -7.88826965 0 0 Z " fill="#292F5C" transform="translate(191,11)"/>
<path d="M0 0 C1.38512223 4.818088 1.22310625 9.58379484 1.25 14.5625 C1.270625 15.52091797 1.29125 16.47933594 1.3125 17.46679688 C1.32023437 18.84641602 1.32023437 18.84641602 1.328125 20.25390625 C1.34214355 21.51182983 1.34214355 21.51182983 1.35644531 22.79516602 C0.91639304 25.51716056 0.1728144 26.35002305 -2 28 C-2.99 28.33 -3.98 28.66 -5 29 C-4.51391769 29.82827301 -4.02783539 30.65654602 -3.52702332 31.50991821 C-1.81792374 35.41614364 -1.55915163 38.6612798 -1.56762695 42.84130859 C-1.55233948 43.98379059 -1.55233948 43.98379059 -1.53674316 45.14935303 C-1.50671972 47.64912371 -1.49736377 50.14851053 -1.48828125 52.6484375 C-1.47142662 54.3886542 -1.45327533 56.12885879 -1.43388367 57.86904907 C-1.38646252 62.43593561 -1.35660225 67.002773 -1.33044434 71.56982422 C-1.30059895 76.23545025 -1.2540823 80.90090713 -1.20898438 85.56640625 C-1.12304103 94.71084887 -1.05565592 103.85532638 -1 113 C0.39238365 113.82604663 1.79163894 114.64051599 3.19360352 115.45019531 C3.97204117 115.90501282 4.75047882 116.35983032 5.55250549 116.82843018 C9.60097734 118.7663579 13.57088854 118.88878777 18 119 C18.85094238 119.03673828 19.70188477 119.07347656 20.57861328 119.11132812 C48.54848632 120.09401101 76.19922603 113.93714843 98.28125 95.91796875 C101.32540737 93.77043819 103.31361376 92.63080153 107 92 C113.99555001 93.30893867 120.58133759 96.99385378 126.9375 100.0625 C127.88173828 100.50916016 128.82597656 100.95582031 129.79882812 101.41601562 C136.74005194 104.74005194 136.74005194 104.74005194 139 107 C139.4453125 109.796875 139.4453125 109.796875 139 113 C136.8671875 115.640625 136.8671875 115.640625 133.875 118.25 C133.33584961 118.72034668 132.79669922 119.19069336 132.24121094 119.67529297 C109.77389311 138.91365893 84.02687307 150.63845786 55 156 C54.31583008 156.13132324 53.63166016 156.26264648 52.92675781 156.39794922 C20.14765467 162.44334512 -19.14522067 158.92490698 -47.94140625 141.4296875 C-51.5354173 138.93365706 -53.15144539 137.32338985 -54 133 C-54.08381342 131.54913083 -54.11778824 130.0948818 -54.11303711 128.64160156 C-54.11211563 127.77323669 -54.11119415 126.90487183 -54.11024475 126.01019287 C-54.10351242 125.06323547 -54.09678009 124.11627808 -54.08984375 123.140625 C-54.08605209 122.13549866 -54.08226044 121.13037231 -54.07835388 120.0947876 C-54.01667235 107.9494586 -53.83316007 95.80524178 -53.62768555 83.66162109 C-53.56188796 79.71327293 -53.50254962 75.76485835 -53.44335938 71.81640625 C-53.40143359 69.26822269 -53.35912973 66.72004531 -53.31640625 64.171875 C-53.29969376 63.01024841 -53.28298126 61.84862183 -53.26576233 60.65179443 C-53.17102402 55.39763294 -53.01670614 50.1481585 -52.68334961 44.90332031 C-52.63109726 44.04329407 -52.57884491 43.18326782 -52.52500916 42.29718018 C-51.71803363 38.76625475 -49.70532761 37.0660464 -46.84375 34.99609375 C-44.61810834 33.79368141 -42.46810087 33.4799085 -40 33 C-38.15565651 30.53884453 -38.15565651 30.53884453 -37 28 C-37.66 27.34 -38.32 26.68 -39 26 C-38.82864637 22.92571434 -38.31400544 21.37242506 -36.3203125 19.0078125 C-27.10320272 11.10274682 -12.82225682 -0.96994932 0 0 Z M19 120 C19 120.33 19 120.66 19 121 C21.64 121 24.28 121 27 121 C27 120.67 27 120.34 27 120 C24.36 120 21.72 120 19 120 Z " fill="#2A2F5C" transform="translate(126,79)"/>
<path d="M0 0 C3.43701472 0.62640604 5.71426318 1.19333437 8.49609375 3.3359375 C9.12999023 3.81764404 9.76388672 4.29935059 10.41699219 4.7956543 C11.08375977 5.31683838 11.75052734 5.83802246 12.4375 6.375 C13.4898584 7.18094604 13.4898584 7.18094604 14.56347656 8.00317383 C16.71756192 9.65805306 18.8606032 11.32618688 21 13 C21.63244629 13.4945166 22.26489258 13.9890332 22.91650391 14.49853516 C25.72838778 16.70146642 28.53291715 18.91261301 31.328125 21.13671875 C36.49483673 25.1656546 41.75848973 29.0688673 47 33 C47.33 22.11 47.66 11.22 48 0 C52.95 0 57.9 0 63 0 C63 19.47 63 38.94 63 59 C62.01 59.33 61.02 59.66 60 60 C57.75 58.62109375 57.75 58.62109375 55 56.4375 C53.9269035 55.60012235 52.8525991 54.76429121 51.77734375 53.9296875 C50.88378174 53.23117676 50.88378174 53.23117676 49.97216797 52.51855469 C45.47828215 49.05829598 40.86958599 45.74892431 36.29101562 42.40209961 C29.43951486 37.37098584 22.74418509 32.18783468 16 27 C15.67 37.89 15.34 48.78 15 60 C10.38 60 5.76 60 1 60 C0 59 0 59 -0.12025452 56.63987732 C-0.11803391 55.59396927 -0.11581329 54.54806122 -0.11352539 53.47045898 C-0.11344986 52.28931015 -0.11337433 51.10816132 -0.11329651 49.89122009 C-0.10813522 48.6058284 -0.10297394 47.32043671 -0.09765625 45.99609375 C-0.0962413 44.68794205 -0.09482635 43.37979034 -0.09336853 42.03199768 C-0.0895441 38.54837141 -0.07971446 35.06478661 -0.06866455 31.58117676 C-0.05844882 28.02873292 -0.05387056 24.47628241 -0.04882812 20.92382812 C-0.03809212 13.94920168 -0.0210166 6.97460283 0 0 Z " fill="#1C2649" transform="translate(603,77)"/>
<path d="M0 0 C17.49 0 34.98 0 53 0 C54 8 54 8 53 11 C40.46 11 27.92 11 15 11 C15 15.62 15 20.24 15 25 C26.22 25 37.44 25 49 25 C49 28.63 49 32.26 49 36 C37.78 36 26.56 36 15 36 C15 39.96 15 43.92 15 48 C27.54 48 40.08 48 53 48 C53 51.96 53 55.92 53 60 C45.61271409 60.02464071 38.22545188 60.0428316 30.83813477 60.05493164 C28.32283105 60.05997363 25.80753028 60.06680703 23.29223633 60.07543945 C19.68570225 60.08751094 16.07920677 60.09322949 12.47265625 60.09765625 C10.77424339 60.10539818 10.77424339 60.10539818 9.04151917 60.11329651 C8.00051559 60.11337204 6.95951202 60.11344757 5.88696289 60.11352539 C4.50463219 60.11685631 4.50463219 60.11685631 3.09437561 60.12025452 C1 60 1 60 0 59 C-0.09381302 57.15881971 -0.11743954 55.31402359 -0.11352539 53.47045898 C-0.11344986 52.28931015 -0.11337433 51.10816132 -0.11329651 49.89122009 C-0.10813522 48.6058284 -0.10297394 47.32043671 -0.09765625 45.99609375 C-0.0962413 44.68794205 -0.09482635 43.37979034 -0.09336853 42.03199768 C-0.0895441 38.54837141 -0.07971446 35.06478661 -0.06866455 31.58117676 C-0.05844882 28.02873302 -0.05381586 24.47628241 -0.04882812 20.92382812 C-0.03862232 13.94918209 -0.01905064 6.97465003 0 0 Z " fill="#1B2548" transform="translate(916,77)"/>
<path d="M0 0 C0.73581299 0.00161133 1.47162598 0.00322266 2.22973633 0.00488281 C11.33252671 0.20701291 19.52666441 2.7568501 26.75 8.375 C25.84373216 9.6739839 24.92450463 10.96393167 24 12.25 C23.48953125 12.96929687 22.9790625 13.68859375 22.453125 14.4296875 C20.61737004 16.52649018 19.41410912 17.55644739 16.75 18.375 C14.75 17.73046875 14.75 17.73046875 12.75 16.5625 C5.70028954 12.52819304 -2.1307717 12.25792114 -9.9375 14.375 C-10.700625 14.705 -11.46375 15.035 -12.25 15.375 C-11.92 17.025 -11.59 18.675 -11.25 20.375 C-4.10563838 22.98032351 2.98022734 24.48932179 10.46484375 25.74804688 C17.19949413 26.98428454 22.34240243 28.77732893 27.125 33.9375 C30.21244143 38.56866214 30.24928059 42.98461885 29.75 48.375 C27.69487622 54.31202425 23.8333831 57.83330845 18.25 60.625 C3.17295661 65.14811302 -12.82936596 62.64165871 -26.484375 55.36328125 C-27.06703125 55.03714844 -27.6496875 54.71101563 -28.25 54.375 C-27.65716379 50.98307637 -26.48256811 49.1642243 -24.1875 46.625 C-23.36572266 45.70460938 -23.36572266 45.70460938 -22.52734375 44.765625 C-22.10582031 44.30671875 -21.68429687 43.8478125 -21.25 43.375 C-17.76645007 43.82449031 -14.91210881 44.91800162 -11.75 46.375 C-5.48180276 49.22511934 0.96122716 50.62504435 7.78515625 48.84375 C9.94315447 48.08538111 9.94315447 48.08538111 12.75 46.375 C13.79289755 44.30609581 13.79289755 44.30609581 13.75 42.375 C8.60506625 39.39900891 3.76398161 38.47741988 -2 37.5 C-12.36938741 35.56858546 -21.00730567 33.43697565 -27.25 24.375 C-28.86558672 21.14382657 -28.6878416 17.87773277 -28.25 14.375 C-25.76924722 8.27648276 -22.28937259 5.00982432 -16.25 2.375 C-10.74541599 0.74082662 -5.73118321 -0.01325895 0 0 Z " fill="#1F284B" transform="translate(844.25,75.625)"/>
<path d="M0 0 C7.68047603 5.22360906 7.68047603 5.22360906 10.2109375 8.28125 C10.2109375 9.27125 10.2109375 10.26125 10.2109375 11.28125 C8.6556463 11.98490602 7.09128923 12.66854378 5.5234375 13.34375 C4.65332031 13.72660156 3.78320312 14.10945313 2.88671875 14.50390625 C-0.22013021 15.40647989 -1.73312521 15.28694002 -4.7890625 14.28125 C-7.140625 12.90625 -7.140625 12.90625 -9.4140625 11.28125 C-15.38639215 7.04150745 -20.56250013 6.52315013 -27.7890625 7.28125 C-30.70418194 8.35450137 -33.08682807 9.70904088 -35.7890625 11.28125 C-36.4490625 11.28125 -37.1090625 11.28125 -37.7890625 11.28125 C-38.0571875 11.8175 -38.3253125 12.35375 -38.6015625 12.90625 C-39.48121284 14.66555068 -40.4300375 16.3906298 -41.4140625 18.09375 C-43.29027488 22.44315142 -43.6455188 25.8269962 -42.0625 30.36328125 C-39.35542143 36.29464446 -35.9439729 39.50520645 -29.9140625 42.03125 C-22.90773163 44.39719382 -17.72231646 43.22523589 -11.0625 40.4453125 C-8.58613145 39.31251225 -8.58613145 39.31251225 -6.2890625 36.90625 C-3.20054325 34.89871249 -2.26450745 35.24706957 1.2734375 35.90625 C4.50810379 36.67379793 7.28654507 37.70086241 10.2109375 39.28125 C8.01004609 45.99915413 2.86594959 49.28597291 -3.171875 52.58203125 C-13.05050576 57.18647779 -25.04445836 57.86871035 -35.60546875 55.09765625 C-44.79082028 51.66341927 -53.0820113 45.61934059 -57.2265625 36.59375 C-59.77518273 29.33404388 -60.09347805 21.741977 -57.2265625 14.53125 C-51.97463691 4.44682342 -44.11541518 -1.23119769 -33.4296875 -4.859375 C-21.7073121 -7.62645932 -10.25112283 -6.31721855 0 0 Z " fill="#202A4C" transform="translate(354.7890625,81.71875)"/>
<path d="M0 0 C0.99 0 1.98 0 3 0 C4.26416016 1.48339844 4.26416016 1.48339844 5.5390625 3.609375 C6.27382813 4.81557495 6.27382813 4.81557495 7.0234375 6.04614258 C7.55195312 6.93841553 8.08046875 7.83068848 8.625 8.75 C9.181875 9.66998779 9.73875 10.58997559 10.3125 11.5378418 C11.54259267 13.57182554 12.76791822 15.60869753 13.98925781 17.64794922 C16.13348647 21.22253148 18.29454474 24.7864841 20.4609375 28.34765625 C22.70153703 32.03118536 24.94200637 35.71475946 27.17431641 39.40332031 C27.52136627 39.97643951 27.86841614 40.54955872 28.22598267 41.14004517 C29.21921369 42.78116296 30.21118953 44.42304022 31.203125 46.06494141 C32.76478592 48.61579569 34.37210712 51.12800321 36 53.63671875 C38 57 38 57 38 60 C32.72 60 27.44 60 22 60 C18 53.25 18 53.25 18 51 C13.3905494 50.94506655 8.78509519 50.94254932 4.17553711 50.98779297 C2.60913955 50.9958847 1.04260104 50.98986234 -0.52368164 50.96923828 C-5.45892261 50.90968313 -10.16264416 50.95290913 -15 52 C-17.02354422 53.97583528 -17.86311505 55.63344456 -18.95581055 58.21875 C-20 60 -20 60 -21.84692383 60.65625 C-24.05097404 60.78490964 -26.11476854 60.70425744 -28.3125 60.5 C-29.05306641 60.46390625 -29.79363281 60.4278125 -30.55664062 60.390625 C-32.3733416 60.29685979 -34.18735698 60.1533611 -36 60 C-34.75944765 55.86281814 -33.26275246 52.53023451 -30.875 48.9375 C-28.32187841 45.02934051 -25.81244767 41.10650879 -23.375 37.125 C-22.715 36.04992187 -22.055 34.97484375 -21.375 33.8671875 C-21.00761719 33.26874023 -20.64023437 32.67029297 -20.26171875 32.05371094 C-17.63779513 27.7827269 -15.00780342 23.51551499 -12.375 19.25 C-11.83665527 18.3748877 -11.29831055 17.49977539 -10.74365234 16.59814453 C-9.17443389 14.05771098 -7.5894886 11.52779006 -6 9 C-5.4627832 8.12794922 -4.92556641 7.25589844 -4.37207031 6.35742188 C-3.84967773 5.53306641 -3.32728516 4.70871094 -2.7890625 3.859375 C-2.3245166 3.11655273 -1.8599707 2.37373047 -1.38134766 1.60839844 C-0.92550293 1.07762695 -0.4696582 0.54685547 0 0 Z M0 25 C-0.42152344 25.84304687 -0.84304688 26.68609375 -1.27734375 27.5546875 C-3.18489583 31.36979167 -5.09244792 35.18489583 -7 39 C-1.72 39 3.56 39 9 39 C6.69 34.38 4.38 29.76 2 25 C1.34 25 0.68 25 0 25 Z " fill="#1F294B" transform="translate(741,77)"/>
<path d="M0 0 C0.99 0 1.98 0 3 0 C4.55883789 1.93334961 4.55883789 1.93334961 6.22265625 4.65234375 C6.83858643 5.64814453 7.4545166 6.64394531 8.08911133 7.66992188 C8.74032959 8.74822266 9.39154785 9.82652344 10.0625 10.9375 C10.73498779 12.03255859 11.40747559 13.12761719 12.1003418 14.25585938 C16.30627797 21.12869226 20.44136381 28.0434933 24.48022461 35.01586914 C26.53314281 38.55181163 28.63891767 42.04109506 30.83203125 45.4921875 C31.29891357 46.22695312 31.7657959 46.96171875 32.24682617 47.71875 C33.14317113 49.1211448 34.04538021 50.51981461 34.9543457 51.9140625 C38 56.67401142 38 56.67401142 38 60 C32.72 60 27.44 60 22 60 C18 53.25 18 53.25 18 51 C13.3905494 50.94506655 8.78509519 50.94254932 4.17553711 50.98779297 C2.60913955 50.9958847 1.04260104 50.98986234 -0.52368164 50.96923828 C-5.45892261 50.90968313 -10.16264416 50.95290913 -15 52 C-17.02354422 53.97583528 -17.86311505 55.63344456 -18.95581055 58.21875 C-20 60 -20 60 -21.84692383 60.65625 C-24.05097404 60.78490964 -26.11476854 60.70425744 -28.3125 60.5 C-29.05306641 60.46390625 -29.79363281 60.4278125 -30.55664062 60.390625 C-32.3733416 60.29685979 -34.18735698 60.1533611 -36 60 C-34.36740792 55.43756699 -32.03606683 51.45372039 -29.5625 47.3125 C-29.12292969 46.57136963 -28.68335938 45.83023926 -28.23046875 45.06665039 C-23.23156306 36.66365231 -18.13727953 28.31897284 -13 20 C-12.53464844 19.24638184 -12.06929687 18.49276367 -11.58984375 17.71630859 C-10.22961024 15.517296 -8.86575914 13.32058428 -7.5 11.125 C-7.09072266 10.46491943 -6.68144531 9.80483887 -6.25976562 9.12475586 C-1.81192875 2.00318789 -1.81192875 2.00318789 0 0 Z M1 25 C-0.39925107 27.12697995 -1.74333193 29.2616701 -3.0625 31.4375 C-3.43955078 32.04916016 -3.81660156 32.66082031 -4.20507812 33.29101562 C-6.15008245 35.96302351 -6.15008245 35.96302351 -7 39 C-1.72 39 3.56 39 9 39 C6.69 34.38 4.38 29.76 2 25 C1.67 25 1.34 25 1 25 Z " fill="#1F294B" transform="translate(526,77)"/>
<path d="M0 0 C13.99280597 -2.06693265 13.99280597 -2.06693265 18.78808594 1.22900391 C22.55882564 4.98225409 25.25990515 9.4736874 28 14 C29.22392597 15.79525078 30.45207758 17.58764117 31.6875 19.375 C32.46187572 20.58106621 33.23338617 21.78898526 34 23 C35.20203354 21.35736342 36.40375726 19.71449932 37.60400391 18.07055664 C38.62243331 16.68415219 39.64824087 15.30313904 40.68115234 13.92749023 C42.80962948 11.08084639 44.80417572 8.37029537 46.46875 5.22265625 C47.81328765 2.71073286 48.54277062 1.48265156 51 0 C56.62815056 -0.92503705 62.34625739 -0.45330676 68 0 C67.3980452 3.1414786 66.41809133 5.07796337 64.4453125 7.58203125 C63.65398926 8.59644287 63.65398926 8.59644287 62.84667969 9.63134766 C61.99444824 10.71101807 61.99444824 10.71101807 61.125 11.8125 C60.5465332 12.57095215 59.96806641 13.3294043 59.37207031 14.11083984 C56.6014041 17.73815545 53.80051329 21.26919433 50.7265625 24.64453125 C41.96390171 34.66040409 41.52610437 43.95791732 42.03076172 57.01318359 C42 59 42 59 41 60 C38.46950598 60.07313567 35.96695163 60.09247527 33.4375 60.0625 C32.72658203 60.05798828 32.01566406 60.05347656 31.28320312 60.04882812 C29.52209987 60.03700864 27.76103964 60.01907263 26 60 C26.06453369 59.05870239 26.06453369 59.05870239 26.13037109 58.09838867 C27.03164434 41.21258837 23.9644999 31.64929838 12.78417969 19.03759766 C10.23235502 16.1233217 7.92895108 13.04840899 5.625 9.9375 C4.91601562 9.01839844 4.20703125 8.09929687 3.4765625 7.15234375 C2 5 2 5 2 3 C1.34 3 0.68 3 0 3 C0 2.01 0 1.02 0 0 Z " fill="#202A4C" transform="translate(389,77)"/>
<path d="M0 0 C7.6725 -0.12375 7.6725 -0.12375 15.5 -0.25 C17.09779297 -0.28641602 18.69558594 -0.32283203 20.34179688 -0.36035156 C29.20395415 -0.42955229 35.54473059 -0.10353761 42.375 6.1875 C44.9300292 10.60966592 46.42559596 14.99900288 45.6953125 20.1484375 C43.98945132 25.64510132 40.57270331 28.69262007 36 32 C36.61488281 32.74765625 37.22976563 33.4953125 37.86328125 34.265625 C38.67152344 35.25046875 39.47976563 36.2353125 40.3125 37.25 C41.11300781 38.22453125 41.91351562 39.1990625 42.73828125 40.203125 C44.54442258 42.4366262 46.29819915 44.68687263 48 47 C46.14426242 48.85573758 43.37341774 48.38617687 40.875 48.5 C36.22117756 48.45931084 33.42406339 48.33879886 30.0625 45 C28.39967191 43.00785877 26.9778843 40.96589241 25.56640625 38.7890625 C22.89767103 34.54616896 22.89767103 34.54616896 18.625 32.2734375 C15.86072724 31.92525047 15.86072724 31.92525047 12 32 C12 37.28 12 42.56 12 48 C8.04 48 4.08 48 0 48 C0 32.16 0 16.32 0 0 Z M12 9 C12 13.95 12 18.9 12 24 C14.371875 24.061875 16.74375 24.12375 19.1875 24.1875 C19.92508545 24.21481201 20.6626709 24.24212402 21.42260742 24.27026367 C25.83308115 24.32565517 28.51659852 23.71290933 32 21 C33.8010962 18.02427584 34.16642792 16.71564005 33.375 13.3125 C31.71954387 10.52832378 31.03171837 10.07718611 28 9 C25.21175242 8.86002773 22.53172884 8.8111087 19.75 8.875 C19.00492188 8.88402344 18.25984375 8.89304688 17.4921875 8.90234375 C15.66131941 8.92581642 13.83061762 8.96168475 12 9 Z " fill="#F8B345" transform="translate(843,157)"/>
<path d="M0 0 C5.47684182 3.88243228 9.52856468 8.08873356 11.625 14.55859375 C12.75378695 21.54587825 12.16983653 27.51822776 8.30078125 33.5234375 C2.26340032 40.85554814 -5.05459536 44.83463492 -14.41015625 45.90625 C-23.44246839 46.32610718 -31.21333791 44.39723054 -38.5390625 38.94921875 C-44.04519433 33.84140284 -47.51482728 28.14545774 -47.875 20.55859375 C-47.50382255 12.7399203 -43.90332992 7.36753677 -38.30859375 2.09765625 C-27.43270172 -6.55911438 -11.79370625 -7.15769343 0 0 Z M-33.24609375 12.9375 C-35.38155804 16.00399716 -35.8301356 18.56993656 -35.7890625 22.328125 C-34.82949951 27.49709168 -30.96487039 31.22654018 -27.0625 34.49609375 C-21.79132098 36.58004825 -16.66607307 37.25884056 -11.1875 35.55859375 C-6.77439068 33.59917321 -3.73038705 30.77392436 -1.375 26.55859375 C-0.0022042 22.12400057 0.00381778 18.71733049 -1.4375 14.30859375 C-5.09456767 9.11791706 -9.17459631 6.00975206 -15.375 4.55859375 C-23.028487 3.55155599 -28.67802869 7.14962465 -33.24609375 12.9375 Z " fill="#F8B448" transform="translate(797.375,160.44140625)"/>
<path d="M0 0 C3.69435326 0.65482421 5.61833668 1.16977655 8.3125 3.8125 C12.33978799 7.52527597 16.60933002 10.79824022 21 14.0625 C21.66427002 14.55661377 22.32854004 15.05072754 23.01293945 15.55981445 C25.00782023 17.04096257 27.0039127 18.52047826 29 20 C31.64 21.98 34.28 23.96 37 26 C37.33 17.42 37.66 8.84 38 0 C41.96 0 45.92 0 50 0 C50 15.51 50 31.02 50 47 C45.04941079 47 44.04467336 45.81270591 40.25 42.75 C39.10122625 41.83602431 37.95143768 40.92332309 36.80078125 40.01171875 C36.19057129 39.52493652 35.58036133 39.0381543 34.95166016 38.53662109 C31.49494645 35.81501038 27.96371721 33.193016 24.4375 30.5625 C23.10281711 29.56386553 21.76817907 28.56517111 20.43359375 27.56640625 C19.86697021 27.14302979 19.30034668 26.71965332 18.71655273 26.28344727 C16.80955625 24.85760734 14.904883 23.42866225 13 22 C12.67 30.58 12.34 39.16 12 48 C8.37 48 4.74 48 1 48 C0 47 0 47 -0.12025452 45.09544373 C-0.11803391 44.26271439 -0.11581329 43.42998505 -0.11352539 42.57202148 C-0.11344986 41.63112167 -0.11337433 40.69022186 -0.11329651 39.72080994 C-0.10813522 38.69790359 -0.10297394 37.67499725 -0.09765625 36.62109375 C-0.0962413 35.57929459 -0.09482635 34.53749542 -0.09336853 33.46412659 C-0.0877508 30.12188906 -0.0751953 26.77971743 -0.0625 23.4375 C-0.05748728 21.17773534 -0.05292398 18.91796963 -0.04882812 16.65820312 C-0.03777561 11.10544609 -0.02102024 5.55272775 0 0 Z " fill="#F8B140" transform="translate(358,157)"/>
<path d="M0 0 C0.99 0.99 1.98 1.98 3 3 C1.02 5.31 -0.96 7.62 -3 10 C-4.299375 9.525625 -5.59875 9.05125 -6.9375 8.5625 C-13.95364328 6.24584892 -20.00739432 4.95194111 -27 8 C-27 8.99 -27 9.98 -27 11 C-21.45700685 12.76424838 -15.94624125 14.24724063 -10.25 15.4375 C-4.16361261 16.8123075 -0.74335138 18.44584527 3.8125 22.6875 C5.96043762 26.87032588 6.75830748 31.42878522 5.41015625 36 C2.7849046 41.22796894 -1.22590808 43.74477746 -6.75 45.58203125 C-18.82887543 47.82585012 -30.17971251 45.61239211 -41 40 C-40.42647107 36.12867972 -38.51295648 33.91827204 -36 31 C-32.33969302 31.61771788 -29.22478222 32.68347457 -25.8125 34.125 C-20.36118881 36.16370174 -15.6464882 36.56908283 -10 35 C-9.34 34.34 -8.68 33.68 -8 33 C-8.3185177 30.89179203 -8.3185177 30.89179203 -9 29 C-9.62455078 28.87995605 -10.24910156 28.75991211 -10.89257812 28.63623047 C-13.76648745 28.07091485 -16.63277335 27.47325085 -19.5 26.875 C-20.48226562 26.68679687 -21.46453125 26.49859375 -22.4765625 26.3046875 C-29.89459572 24.72217375 -36.25422701 22.17357494 -40.5625 15.625 C-41.18594384 11.88433693 -41.14357027 8.63729126 -40 5 C-30.80258317 -6.49677104 -12.21971303 -7.44133237 0 0 Z " fill="#F9B54A" transform="translate(962,160)"/>
<path d="M0 0 C0 0.99 0 1.98 0 3 C-0.66 3 -1.32 3 -2 3 C-2.2475 3.61875 -2.495 4.2375 -2.75 4.875 C-4.27134658 7.46128919 -5.16838883 8.05941264 -8 9 C-10.48046875 8.28515625 -10.48046875 8.28515625 -13.1875 7.0625 C-18.49352254 4.94293604 -22.47028303 4.57807278 -28 6 C-28.99 6.495 -28.99 6.495 -30 7 C-30 7.99 -30 8.98 -30 10 C-24.45700685 11.76424838 -18.94624125 13.24724063 -13.25 14.4375 C-7.16361261 15.8123075 -3.74335138 17.44584527 0.8125 21.6875 C2.96043762 25.87032588 3.75830748 30.42878522 2.41015625 35 C-0.21498618 40.22775145 -4.22390455 42.74130152 -9.74609375 44.58203125 C-22.19383549 46.89036464 -33.30390786 44.63043722 -44 38 C-40.25 32.25 -40.25 32.25 -38 30 C-35.31523396 30.29830734 -33.31968175 31.32655276 -30.875 32.5 C-23.89951871 35.53867533 -17.06443976 35.61077121 -10 33 C-10 31.35 -10 29.7 -10 28 C-10.83023682 27.85751831 -10.83023682 27.85751831 -11.67724609 27.7121582 C-35.87949994 23.46857884 -35.87949994 23.46857884 -41.7109375 17.14453125 C-44.04195179 13.26657112 -43.81130358 9.35824235 -43 5 C-40.80254711 0.66948845 -37.7835881 -1.55016239 -33.625 -3.9375 C-21.95496248 -7.48536992 -10.69376448 -5.12714735 0 0 Z " fill="#F8B64B" transform="translate(644,161)"/>
<path d="M0 0 C13.86 0 27.72 0 42 0 C42 2.97 42 5.94 42 9 C32.1 9 22.2 9 12 9 C12 12.63 12 16.26 12 20 C13.17357056 19.99214478 13.17357056 19.99214478 14.37084961 19.98413086 C17.89305833 19.96342894 21.4152543 19.95036162 24.9375 19.9375 C26.78504883 19.92493164 26.78504883 19.92493164 28.66992188 19.91210938 C29.83974609 19.90888672 31.00957031 19.90566406 32.21484375 19.90234375 C33.84087524 19.89448853 33.84087524 19.89448853 35.49975586 19.88647461 C38 20 38 20 39 21 C39.125 24.5 39.125 24.5 39 28 C38 29 38 29 35.49975586 29.11352539 C34.41573486 29.10828857 33.33171387 29.10305176 32.21484375 29.09765625 C31.04501953 29.09443359 29.87519531 29.09121094 28.66992188 29.08789062 C27.43822266 29.07951172 26.20652344 29.07113281 24.9375 29.0625 C23.08415039 29.05573242 23.08415039 29.05573242 21.19335938 29.04882812 C18.12885883 29.03699608 15.06445279 29.02051173 12 29 C12 32.3 12 35.6 12 39 C21.9 39 31.8 39 42 39 C42 41.97 42 44.94 42 48 C28.14 48 14.28 48 0 48 C0 32.16 0 16.32 0 0 Z " fill="#F9B74E" transform="translate(525,157)"/>
<path d="M0 0 C10.43328 -1.19808 10.43328 -1.19808 13.59375 1.21875 C14.93657838 3.40564194 15.93961591 5.66072842 17 8 C18.1556321 10.11037664 19.34837718 12.19731128 20.54418945 14.28515625 C22.38995121 17.50839988 24.19250564 20.75517353 26 24 C28.59905798 21.64365561 30.19969673 19.16182838 31.91796875 16.11328125 C32.44970703 15.17548828 32.98144531 14.23769531 33.52929688 13.27148438 C34.07650391 12.29501953 34.62371094 11.31855469 35.1875 10.3125 C35.74630859 9.32443359 36.30511719 8.33636719 36.88085938 7.31835938 C38.25828481 4.88137591 39.62972086 2.44100888 41 0 C45.29 0 49.58 0 54 0 C52.49194833 4.52415501 51.18736848 7.70810254 48.83984375 11.7109375 C48.214729 12.78424316 47.58961426 13.85754883 46.94555664 14.96337891 C46.28289795 16.08921387 45.62023926 17.21504883 44.9375 18.375 C43.91743718 20.12192148 42.89936568 21.8699932 41.88139343 23.61813354 C40.87744087 25.34177149 39.87183428 27.06444568 38.86621094 28.78710938 C36.39301389 33.0449944 33.96722425 37.32815729 31.5625 41.625 C31.00647095 42.61765869 31.00647095 42.61765869 30.43920898 43.63037109 C29.624825 45.0861796 28.81216193 46.54295069 28 48 C23.64943008 46.49914837 22.60591825 43.88165365 20.625 39.875 C16.3367143 31.42568695 11.55587261 23.28880595 6.74853516 15.12646484 C5.87140869 13.63493896 5.87140869 13.63493896 4.9765625 12.11328125 C4.45143066 11.22423096 3.92629883 10.33518066 3.38525391 9.41918945 C0 3.50722594 0 3.50722594 0 0 Z " fill="#F8B448" transform="translate(440,157)"/>
<path d="M0 0 C1.38512223 4.818088 1.22310625 9.58379484 1.25 14.5625 C1.270625 15.52091797 1.29125 16.47933594 1.3125 17.46679688 C1.32023437 18.84641602 1.32023437 18.84641602 1.328125 20.25390625 C1.34214355 21.51182983 1.34214355 21.51182983 1.35644531 22.79516602 C0.91639304 25.51716056 0.1728144 26.35002305 -2 28 C-2.99 28.33 -3.98 28.66 -5 29 C-4.505 29.845625 -4.01 30.69125 -3.5 31.5625 C-1.85252292 35.33796832 -1.75569053 37.92817548 -2 42 C-2.33 42 -2.66 42 -3 42 C-3.66 39.69 -4.32 37.38 -5 35 C-5.8470752 34.97494385 -6.69415039 34.9498877 -7.56689453 34.92407227 C-10.73155558 34.82852143 -13.89607563 34.72931434 -17.06054688 34.62768555 C-18.42606176 34.58456912 -19.79162252 34.54287932 -21.15722656 34.50268555 C-23.1283719 34.44441446 -25.09934668 34.38046264 -27.0703125 34.31640625 C-28.25383301 34.27974854 -29.43735352 34.24309082 -30.65673828 34.20532227 C-33.83557719 34.01009782 -36.87180449 33.58523498 -40 33 C-39.01 31.35 -38.02 29.7 -37 28 C-37.66 27.34 -38.32 26.68 -39 26 C-38.82864637 22.92571434 -38.31400544 21.37242506 -36.3203125 19.0078125 C-27.10320272 11.10274682 -12.82225682 -0.96994932 0 0 Z " fill="#F1AA3A" transform="translate(126,79)"/>
<path d="M0 0 C0.85758911 -0.00315216 1.71517822 -0.00630432 2.59875488 -0.009552 C3.53102905 -0.00752777 4.46330322 -0.00550354 5.42382812 -0.00341797 C6.84979309 -0.00485306 6.84979309 -0.00485306 8.30456543 -0.00631714 C10.31876695 -0.00699904 12.33297065 -0.00514409 14.34716797 -0.00097656 C17.44178167 0.00437155 20.53625022 -0.00092124 23.63085938 -0.00732422 C25.58268261 -0.00666344 27.53450576 -0.00538228 29.48632812 -0.00341797 C30.88473938 -0.00645432 30.88473938 -0.00645432 32.31140137 -0.009552 C33.16899048 -0.00639984 34.02657959 -0.00324768 34.91015625 0 C35.66880981 0.00079559 36.42746338 0.00159119 37.20910645 0.00241089 C38.95507812 0.12939453 38.95507812 0.12939453 39.95507812 1.12939453 C40.08007812 4.62939453 40.08007812 4.62939453 39.95507812 8.12939453 C37.95891259 10.12556007 34.13805849 9.5392288 31.39257812 9.69189453 C30.68166016 9.73507813 29.97074219 9.77826172 29.23828125 9.82275391 C27.47745901 9.9291123 25.71629493 10.02978299 23.95507812 10.12939453 C23.96293335 11.80279907 23.96293335 11.80279907 23.97094727 13.51000977 C23.98899588 17.63418786 24.00050961 21.75836244 24.01000977 25.88256836 C24.01505031 27.67033474 24.02188267 29.45809698 24.03051758 31.24584961 C24.04259543 33.80990621 24.04830907 36.3739085 24.05273438 38.93798828 C24.05789566 39.74215683 24.06305695 40.54632538 24.06837463 41.37486267 C24.06857027 43.29341168 24.01709795 45.21184821 23.95507812 47.12939453 C22.95507812 48.12939453 22.95507812 48.12939453 20.48632812 48.26220703 C18.98585938 48.25833984 18.98585938 48.25833984 17.45507812 48.25439453 C16.45476563 48.25697266 15.45445312 48.25955078 14.42382812 48.26220703 C11.95507812 48.12939453 11.95507812 48.12939453 10.95507812 47.12939453 C10.8664582 44.31776073 10.83985457 41.53081198 10.85742188 38.71923828 C10.85883682 37.87720352 10.86025177 37.03516876 10.86170959 36.1676178 C10.86732549 33.46734118 10.87988064 30.76714626 10.89257812 28.06689453 C10.89759108 26.24072385 10.90215434 24.41455187 10.90625 22.58837891 C10.91730008 18.10201911 10.93457533 13.61572069 10.95507812 9.12939453 C9.34826172 9.14679688 9.34826172 9.14679688 7.70898438 9.16455078 C6.31185069 9.17392752 4.91471514 9.18302784 3.51757812 9.19189453 C2.81052734 9.20027344 2.10347656 9.20865234 1.375 9.21728516 C-0.43185747 9.22593041 -2.2387979 9.18159465 -4.04492188 9.12939453 C-5.04492188 8.12939453 -5.04492188 8.12939453 -5.16992188 4.62939453 C-4.99681868 -0.21749503 -4.41271271 0.00462757 0 0 Z " fill="#F9BA56" transform="translate(682.044921875,156.87060546875)"/>
<path d="M0 0 C3.96 0 7.92 0 12 0 C12.02464296 6.67520882 12.04283267 13.3503914 12.05493164 20.02563477 C12.05997325 22.29842591 12.06680637 24.5712138 12.07543945 26.84399414 C12.08751261 30.10303551 12.09322987 33.36203417 12.09765625 36.62109375 C12.10281754 37.64400009 12.10797882 38.66690643 12.11329651 39.72080994 C12.11337204 40.66170975 12.11344757 41.60260956 12.11352539 42.57202148 C12.115746 43.40475082 12.11796661 44.23748016 12.12025452 45.09544373 C12 47 12 47 11 48 C7.37 48 3.74 48 0 48 C0 32.16 0 16.32 0 0 Z " fill="#F8B54A" transform="translate(309,157)"/>
<path d="M0 0 C3.69097893 0.5325293 4.71510215 0.68430238 7.3125 3.5625 C8.1478125 4.7690625 8.1478125 4.7690625 9 6 C8.01 6 7.02 6 6 6 C4.68 4.68 3.36 3.36 2 2 C2 16.85 2 31.7 2 47 C4.97 47 7.94 47 11 47 C11 38.09 11 29.18 11 20 C11.66 20.33 12.32 20.66 13 21 C12.67 29.91 12.34 38.82 12 48 C8.37 48 4.74 48 1 48 C0 47 0 47 -0.12025452 45.09544373 C-0.11803391 44.26271439 -0.11581329 43.42998505 -0.11352539 42.57202148 C-0.11344986 41.63112167 -0.11337433 40.69022186 -0.11329651 39.72080994 C-0.10813522 38.69790359 -0.10297394 37.67499725 -0.09765625 36.62109375 C-0.0962413 35.57929459 -0.09482635 34.53749542 -0.09336853 33.46412659 C-0.0877508 30.12188906 -0.0751953 26.77971743 -0.0625 23.4375 C-0.05748728 21.17773534 -0.05292398 18.91796963 -0.04882812 16.65820312 C-0.03777561 11.10544609 -0.02102024 5.55272775 0 0 Z " fill="#FAD8A1" transform="translate(358,157)"/>
<path d="M0 0 C8.25 0 16.5 0 25 0 C24.01 0.66 23.02 1.32 22 2 C22.66 3.32 23.32 4.64 24 6 C20.75007554 6.05819424 17.50028565 6.09366116 14.25 6.125 C13.32960938 6.14175781 12.40921875 6.15851563 11.4609375 6.17578125 C10.57148437 6.18222656 9.68203125 6.18867187 8.765625 6.1953125 C7.54020996 6.21102295 7.54020996 6.21102295 6.29003906 6.22705078 C3.78112482 5.97829916 2.16604375 5.25700129 0 4 C0 2.68 0 1.36 0 0 Z " fill="#676767" transform="translate(99,106)"/>
<path d="M0 0 C3.3 0.33 6.6 0.66 10 1 C10.33 2.32 10.66 3.64 11 5 C13.7902667 5.9300889 15.76529542 6.18698769 18.66796875 6.31640625 C20.00698242 6.37924805 20.00698242 6.37924805 21.37304688 6.44335938 C22.76620117 6.50233398 22.76620117 6.50233398 24.1875 6.5625 C25.12787109 6.60568359 26.06824219 6.64886719 27.03710938 6.69335938 C29.35792854 6.79938665 31.67885325 6.90145029 34 7 C35.4783226 9.95664519 35.06032783 12.74229737 35 16 C34.67 16 34.34 16 34 16 C33.34 13.69 32.68 11.38 32 9 C31.1529248 8.97494385 30.30584961 8.9498877 29.43310547 8.92407227 C26.26844442 8.82852143 23.10392437 8.72931434 19.93945312 8.62768555 C18.57393824 8.58456912 17.20837748 8.54287932 15.84277344 8.50268555 C13.8716281 8.44441446 11.90065332 8.38046264 9.9296875 8.31640625 C8.15440674 8.26141968 8.15440674 8.26141968 6.34326172 8.20532227 C3.16442281 8.01009782 0.12819551 7.58523498 -3 7 C-2.505 6.21625 -2.01 5.4325 -1.5 4.625 C0.16537965 2.21447673 0.16537965 2.21447673 0 0 Z " fill="#ADADAE" transform="translate(89,105)"/>
<path d="M0 0 C2.89608593 -0.05413245 5.79115195 -0.09373641 8.6875 -0.125 C9.91243164 -0.15013672 9.91243164 -0.15013672 11.16210938 -0.17578125 C15.57092929 -0.2114802 18.98731576 -0.07580814 23 2 C24.63837638 12.16236162 24.63837638 12.16236162 22 16 C17.49734166 17.37413182 12.84633248 17.11287299 8.1875 17.0625 C5.485625 17.041875 2.78375 17.02125 0 17 C0 11.39 0 5.78 0 0 Z M1 1 C1 5.95 1 10.9 1 16 C3.371875 16.061875 5.74375 16.12375 8.1875 16.1875 C8.92508545 16.21481201 9.6626709 16.24212402 10.42260742 16.27026367 C14.83308115 16.32565517 17.51659852 15.71290933 21 13 C22.8010962 10.02427584 23.16642792 8.71564005 22.375 5.3125 C20.71954387 2.52832378 20.03171837 2.07718611 17 1 C14.21175242 0.86002773 11.53172884 0.8111087 8.75 0.875 C8.00492188 0.88402344 7.25984375 0.89304688 6.4921875 0.90234375 C4.66131941 0.92581642 2.83061762 0.96168475 1 1 Z " fill="#FADEAF" transform="translate(854,165)"/>
<path d="M0 0 C0 0.99 0 1.98 0 3 C-2 2 -2 2 -5 0 C-6.9896995 -0.39013716 -8.99019869 -0.73202649 -11 -1 C-11 -1.66 -11 -2.32 -11 -3 C-18.92 -2.67 -26.84 -2.34 -35 -2 C-26.76966627 -10.23033373 -8.77458949 -4.20699496 0 0 Z " fill="#FCDDAB" transform="translate(644,161)"/>
<path d="M0 0 C1.32 0 2.64 0 4 0 C4.66 0.99 5.32 1.98 6 3 C8.93597539 3.38384509 11.68027373 3.603843 14.625 3.6875 C15.82769531 3.73874023 15.82769531 3.73874023 17.0546875 3.79101562 C19.03596318 3.87356878 21.01796037 3.93845916 23 4 C23.33 4.66 23.66 5.32 24 6 C20.75007554 6.05819424 17.50028565 6.09366116 14.25 6.125 C13.32960938 6.14175781 12.40921875 6.15851563 11.4609375 6.17578125 C10.57148437 6.18222656 9.68203125 6.18867187 8.765625 6.1953125 C7.54020996 6.21102295 7.54020996 6.21102295 6.29003906 6.22705078 C3.78112482 5.97829916 2.16604375 5.25700129 0 4 C0 2.68 0 1.36 0 0 Z " fill="#878787" transform="translate(99,106)"/>
<path d="M0 0 C3.91593446 0.78318689 7.36406635 2.39179858 11 4 C7.30581799 5.231394 4.7943739 4.64432764 1 4 C0.34 5.32 -0.32 6.64 -1 8 C-0.34 8.33 0.32 8.66 1 9 C1 9.66 1 10.32 1 11 C-0.98 10.34 -2.96 9.68 -5 9 C-5 4.61031544 -2.87194899 3.23094261 0 0 Z " fill="#FBCC7E" transform="translate(606,191)"/>
<path d="M0 0 C5.61 0 11.22 0 17 0 C17.66 1.32 18.32 2.64 19 4 C18.34 3.67 17.68 3.34 17 3 C14.62876754 2.76970044 12.25258057 2.58880058 9.875 2.4375 C8.59367187 2.35371094 7.31234375 2.26992187 5.9921875 2.18359375 C4.51105469 2.09271484 4.51105469 2.09271484 3 2 C3.7734375 3.175625 3.7734375 3.175625 4.5625 4.375 C5.036875 5.24125 5.51125 6.1075 6 7 C5.67 7.66 5.34 8.32 5 9 C2 5.25 2 5.25 2 3 C1.34 3 0.68 3 0 3 C0 2.01 0 1.02 0 0 Z " fill="#7A7F93" transform="translate(389,77)"/>
<path d="M0 0 C0.9796875 -0.00257813 1.959375 -0.00515625 2.96875 -0.0078125 C5.5 0.125 5.5 0.125 7.5 1.125 C7.5 1.785 7.5 2.445 7.5 3.125 C8.49 3.455 9.48 3.785 10.5 4.125 C9.51 4.62 9.51 4.62 8.5 5.125 C7.654375 4.795 6.80875 4.465 5.9375 4.125 C0.3355133 2.49533114 -4.94023219 3.65329675 -10.5 5.125 C-10.17 4.465 -9.84 3.805 -9.5 3.125 C-8.84 3.125 -8.18 3.125 -7.5 3.125 C-7.5 2.465 -7.5 1.805 -7.5 1.125 C-4.89080172 -0.17959914 -2.91057385 -0.0076594 0 0 Z " fill="#FCD088" transform="translate(779.5,162.875)"/>
<path d="M0 0 C0.33 0.66 0.66 1.32 1 2 C-4.94 1.01 -4.94 1.01 -11 0 C-11 -0.66 -11 -1.32 -11 -2 C-16.61 -1.34 -22.22 -0.68 -28 0 C-21.72537694 -6.27462306 -7.21165333 -3.81587482 0 0 Z " fill="#FCE3BB" transform="translate(795,159)"/>
<path d="M0 0 C9.47604492 -0.42324766 17.39840919 -0.63162582 26 4 C26 4.33 26 4.66 26 5 C24.35 5 22.7 5 21 5 C21 4.34 21 3.68 21 3 C18.36 3 15.72 3 13 3 C13 2.34 13 1.68 13 1 C8.71 1 4.42 1 0 1 C0 0.67 0 0.34 0 0 Z " fill="#FCDFB0" transform="translate(936,156)"/>
<path d="M0 0 C2.97 0.495 2.97 0.495 6 1 C6 3.31 6 5.62 6 8 C3.03 7.67 0.06 7.34 -3 7 C-2.505 6.21625 -2.01 5.4325 -1.5 4.625 C0.16537965 2.21447673 0.16537965 2.21447673 0 0 Z " fill="#E6E5E3" transform="translate(89,105)"/>
<path d="M0 0 C0 0.99 0 1.98 0 3 C-0.928125 3.4125 -1.85625 3.825 -2.8125 4.25 C-5.88054681 5.93441786 -7.19040465 7.08454083 -9 10 C-10.32 9.67 -11.64 9.34 -13 9 C-11.21326795 7.4941255 -9.42046492 5.9954515 -7.625 4.5 C-6.62726563 3.6646875 -5.62953125 2.829375 -4.6015625 1.96875 C-2 0 -2 0 0 0 Z " fill="#FACF8A" transform="translate(103,89)"/>
<path d="M0 0 C2.64 0 5.28 0 8 0 C8 0.66 8 1.32 8 2 C10.64 1.34 13.28 0.68 16 0 C15.1875 1.9375 15.1875 1.9375 14 4 C10.22134307 5.25955231 8.96588214 4.48087189 5.3125 3.0625 C4.31863281 2.68222656 3.32476563 2.30195313 2.30078125 1.91015625 C1.54152344 1.60980469 0.78226563 1.30945313 0 1 C0 0.67 0 0.34 0 0 Z " fill="#FBD9A3" transform="translate(946,165)"/>
<path d="M0 0 C3.96 0 7.92 0 12 0 C12 0.66 12 1.32 12 2 C14.97 2.495 14.97 2.495 18 3 C14.02549507 4.51553092 10.79518851 3.49888623 6.75 2.5625 C5.48671875 2.27503906 4.2234375 1.98757812 2.921875 1.69140625 C1.95765625 1.46324219 0.9934375 1.23507813 0 1 C0 0.67 0 0.34 0 0 Z " fill="#FCE0B3" transform="translate(935,184)"/>
<path d="M0 0 C3.0390625 -0.29296875 3.0390625 -0.29296875 6.625 -0.1875 C7.81351562 -0.16042969 9.00203125 -0.13335937 10.2265625 -0.10546875 C11.14179688 -0.07066406 12.05703125 -0.03585938 13 0 C12.67 0.66 12.34 1.32 12 2 C8.7 2 5.4 2 2 2 C1.67 2.66 1.34 3.32 1 4 C0.34 4 -0.32 4 -1 4 C-1.33 5.65 -1.66 7.3 -2 9 C-2.66 9 -3.32 9 -4 9 C-2.94124926 5.59687262 -1.99097846 2.98646769 0 0 Z " fill="#FCDBA6" transform="translate(481,157)"/>
<path d="M0 0 C4.75 0.75 4.75 0.75 7 3 C5.906875 3.103125 4.81375 3.20625 3.6875 3.3125 C0.14440371 3.97307727 -0.93243723 4.2027092 -3 7 C-2.67 7.66 -2.34 8.32 -2 9 C-2.99 9 -3.98 9 -5 9 C-4.42647107 5.12867972 -2.51295648 2.91827204 0 0 Z " fill="#FBDDAB" transform="translate(926,191)"/>
<path d="M0 0 C0.66 0 1.32 0 2 0 C3.51708428 9.41002278 3.51708428 9.41002278 1 14 C0.01 13.34 -0.98 12.68 -2 12 C-1.484375 11.319375 -0.96875 10.63875 -0.4375 9.9375 C1.39207088 6.19881168 0.86178872 3.99556587 0 0 Z " fill="#FACE87" transform="translate(875,167)"/>
<path d="M0 0 C0.33 0.66 0.66 1.32 1 2 C0.22265625 3.7265625 0.22265625 3.7265625 -0.9375 5.625 C-1.618125 6.73875 -2.29875 7.8525 -3 9 C-4.9375 8.25 -4.9375 8.25 -7 7 C-7.75 4.875 -7.75 4.875 -8 3 C-5.525 3.495 -5.525 3.495 -3 4 C-2.01 2.68 -1.02 1.36 0 0 Z " fill="#FBDCA8" transform="translate(471,196)"/>
<path d="M0 0 C0 3 0 3 -1 5 C-0.505 5.45375 -0.01 5.9075 0.5 6.375 C2 8 2 8 2 10 C0.02 9.34 -1.96 8.68 -4 8 C-4 4.09161134 -2.49432124 2.88405893 0 0 Z " fill="#FCD799" transform="translate(605,192)"/>
<path d="M0 0 C0.66 0.33 1.32 0.66 2 1 C0.88200014 2.33920838 -0.24461897 3.67122556 -1.375 5 C-2.00148438 5.7425 -2.62796875 6.485 -3.2734375 7.25 C-4.12808594 8.11625 -4.12808594 8.11625 -5 9 C-5.66 9 -6.32 9 -7 9 C-5.44499019 5.18315774 -2.96404505 2.80804268 0 0 Z " fill="#F9C572" transform="translate(761,161)"/>
<path d="M0 0 C0.7425 0.2475 1.485 0.495 2.25 0.75 C1.4146875 1.12125 1.4146875 1.12125 0.5625 1.5 C-2.14971127 2.96606015 -4.38587365 4.77989471 -6.75 6.75 C-6.75 3.75 -6.75 3.75 -5.0625 1.5 C-2.75 -0.25 -2.75 -0.25 0 0 Z " fill="#7B8094" transform="translate(825.75,119.25)"/>
<path d="M0 0 C2.25 0.125 2.25 0.125 5 1 C7.3125 4.0625 7.3125 4.0625 9 7 C5.18315774 5.44499019 2.80804268 2.96404505 0 0 Z " fill="#FBD290" transform="translate(395,196)"/>
<path d="M0 0 C8.57142857 0.71428571 8.57142857 0.71428571 12 4 C11.01 4.33 10.02 4.66 9 5 C9 4.34 9 3.68 9 3 C8.2575 3.061875 7.515 3.12375 6.75 3.1875 C3.54616994 2.96905704 2.35968744 2.09749995 0 0 Z " fill="#FCDAA2" transform="translate(629,176)"/>
<path d="M0 0 C-0.66 0 -1.32 0 -2 0 C-2 0.66 -2 1.32 -2 2 C-4.31 2.33 -6.62 2.66 -9 3 C-5.83583464 -0.30799106 -4.50236011 -1.35070803 0 0 Z " fill="#FCD598" transform="translate(936,158)"/>
</svg>
