<?xml version="1.0" standalone="no"?>
<!DOCTYPE svg PUBLIC "-//W3C//DTD SVG 20010904//EN"
 "http://www.w3.org/TR/2001/REC-SVG-20010904/DTD/svg10.dtd">
<svg version="1.0" xmlns="http://www.w3.org/2000/svg"
 width="970.000000pt" height="970.000000pt" viewBox="0 0 970.000000 970.000000"
 preserveAspectRatio="xMidYMid meet">
<metadata>
Created by potrace 1.14, written by Peter Selinger 2001-2017
</metadata>
<g transform="translate(0.000000,970.000000) scale(0.100000,-0.100000)"
fill="#000000" stroke="none">
<path d="M1397 6054 c-1 -1 -33 -4 -72 -8 -38 -3 -83 -9 -100 -12 -16 -3 -39
-7 -50 -8 -12 -1 -26 -6 -33 -10 -7 -4 -12 -5 -12 -2 0 2 -33 -4 -72 -15 -268
-73 -493 -203 -675 -387 -51 -52 -93 -98 -93 -102 0 -5 -6 -15 -13 -22 -23
-24 -76 -113 -103 -173 -34 -76 -75 -197 -70 -203 3 -2 0 -16 -5 -31 -6 -14
-12 -65 -13 -112 -2 -47 -6 -91 -10 -98 -4 -6 -3 -11 1 -11 5 0 9 -15 10 -32
1 -18 4 -46 7 -63 3 -16 8 -46 11 -65 17 -101 105 -283 188 -390 69 -89 203
-220 225 -220 16 0 17 24 16 372 -1 205 2 402 7 438 33 252 111 387 304 525
130 93 326 173 470 191 28 3 53 8 57 10 4 3 67 5 140 5 194 1 418 -50 578
-132 64 -32 220 -145 220 -158 0 -12 48 -31 78 -31 32 0 290 123 308 148 8 9
12 29 10 45 -7 44 -111 153 -226 235 -36 26 -66 50 -68 54 -2 5 -9 8 -15 8 -6
0 -18 7 -27 15 -21 19 -223 119 -262 130 -5 2 -10 4 -13 5 -3 1 -8 3 -12 4 -5
1 -12 4 -18 8 -12 7 -68 24 -150 44 -97 25 -104 26 -225 40 -48 6 -287 12
-293 8z"/>
<path d="M3227 5350 c-260 -65 -348 -335 -162 -497 151 -132 408 -124 546 18
16 16 29 33 29 38 0 4 -27 17 -61 28 l-61 20 -23 -23 c-56 -56 -157 -82 -235
-61 -46 12 -112 60 -134 98 -38 64 -27 154 26 211 85 89 229 96 331 15 l38
-30 60 18 c32 10 59 21 59 26 0 4 -12 20 -27 36 -92 98 -245 139 -386 103z"/>
<path d="M8385 5362 c-3 -3 -22 -7 -42 -9 -36 -3 -104 -33 -128 -56 -38 -38
-52 -101 -34 -155 14 -42 21 -50 69 -79 45 -27 116 -46 220 -58 100 -12 146
-56 107 -103 -19 -24 -73 -40 -124 -37 -59 3 -79 9 -157 43 l-59 26 -34 -39
c-18 -21 -33 -42 -33 -46 0 -10 56 -42 110 -62 104 -38 254 -39 343 -2 74 31
107 76 109 150 1 66 -26 104 -100 141 -34 17 -68 31 -75 31 -48 1 -198 37
-225 54 -23 14 -28 35 -13 57 12 20 93 41 137 36 58 -6 65 -8 119 -32 l49 -23
26 28 c57 63 57 59 -9 93 -34 16 -62 30 -63 29 -2 0 -19 2 -38 6 -49 9 -149
13 -155 7z"/>
<path d="M3905 5351 c-4 -3 20 -45 40 -68 22 -26 34 -42 123 -165 l93 -127 2
-91 c1 -51 -1 -94 -5 -96 -4 -3 -5 -11 -1 -19 4 -11 23 -15 73 -15 l68 0 1
112 c1 107 2 113 31 152 107 145 166 221 173 224 4 2 7 8 7 14 0 5 11 24 25
42 14 18 25 35 25 37 0 8 -152 1 -160 -7 -4 -5 -44 -60 -88 -122 l-81 -113
-38 53 c-22 29 -58 81 -81 115 -23 34 -47 65 -54 69 -12 8 -146 12 -153 5z"/>
<path d="M5110 5103 c-85 -140 -166 -272 -179 -294 l-23 -39 74 0 73 0 27 45
c26 42 31 45 62 42 19 -2 40 -1 47 4 7 4 18 5 23 1 15 -9 77 -9 103 0 12 4 24
4 27 -1 3 -4 25 -6 49 -5 41 2 44 0 70 -42 l27 -44 75 0 76 0 -30 44 c-17 25
-35 56 -41 70 -5 14 -14 26 -20 26 -5 0 -10 5 -10 11 0 6 -33 63 -72 127 -40
64 -77 124 -83 134 -48 85 -102 168 -110 171 -5 2 -80 -110 -165 -250z m204
-45 c56 -101 59 -94 -43 -96 l-91 -2 11 27 c6 15 13 30 17 33 4 3 18 26 32 53
13 26 28 47 32 47 4 0 23 -28 42 -62z"/>
<path d="M6521 5345 c-4 -5 -7 -83 -6 -172 0 -90 -1 -163 -3 -163 -3 0 -147
108 -177 133 -77 62 -273 207 -281 207 -8 0 -11 -46 -10 -152 1 -84 -2 -163
-6 -175 -4 -13 -4 -23 0 -23 4 0 7 -51 7 -112 l0 -113 67 -3 68 -3 2 169 3
170 125 -95 c69 -52 154 -115 189 -141 35 -26 70 -53 77 -59 7 -7 17 -13 22
-13 6 0 12 -7 16 -15 9 -24 36 -18 37 8 0 31 0 441 0 507 l-1 55 -61 0 c-33 0
-64 -4 -68 -10z"/>
<path d="M7407 5342 c-9 -10 -17 -21 -17 -25 0 -3 -31 -56 -70 -117 -38 -61
-70 -113 -70 -115 0 -2 -31 -52 -68 -112 -38 -59 -81 -129 -96 -155 l-28 -48
74 0 73 0 27 44 26 44 164 0 163 0 28 -44 27 -44 75 0 75 0 -35 53 c-20 28
-38 59 -42 67 -6 13 -154 256 -183 300 -5 8 -19 31 -29 50 -11 19 -33 54 -49
78 -27 41 -29 42 -45 24z m63 -300 c0 -3 6 -13 14 -21 7 -9 17 -26 20 -38 7
-20 4 -21 -84 -22 -49 -1 -90 1 -90 4 0 5 25 51 67 123 l26 43 23 -41 c13 -23
24 -45 24 -48z"/>
<path d="M9169 5305 c0 -62 0 -447 0 -497 l1 -38 255 0 c163 0 255 4 256 10 1
13 1 78 0 88 -1 4 -86 6 -189 5 l-188 -2 -1 67 -2 68 170 -1 c128 0 169 3 170
13 1 6 1 23 1 37 0 59 11 55 -171 55 l-169 0 0 70 c0 65 1 70 21 71 12 0 98 2
191 2 l169 2 1 48 c1 26 -1 48 -4 48 -3 1 -119 2 -257 3 l-253 1 -1 -50z"/>
<path d="M1132 5292 c-85 -43 -227 -144 -242 -172 -7 -14 -6 -23 6 -34 13 -13
44 -16 179 -16 146 0 165 2 174 18 5 9 9 68 10 130 l0 112 -27 0 c-15 -1 -60
-18 -100 -38z"/>
<path d="M1045 5034 c-7 -7 -15 -11 -18 -8 -3 3 -14 1 -24 -5 -16 -9 -15 -10
7 -9 14 1 30 6 37 11 8 6 11 3 10 -10 -1 -16 -11 -18 -105 -17 -119 1 -159 -8
-185 -42 -20 -27 -24 -131 -30 -700 -2 -256 -1 -273 17 -293 11 -12 31 -27 45
-35 99 -51 133 -67 189 -85 140 -47 290 -66 522 -66 172 0 251 6 340 27 25 5
56 12 70 14 56 10 195 57 264 88 164 75 283 156 432 293 24 22 30 48 16 71 -5
7 -69 40 -143 73 -149 68 -187 74 -228 36 -103 -95 -350 -208 -486 -222 -16
-2 -30 -4 -30 -5 0 -15 -324 -22 -380 -9 -52 13 -115 43 -127 63 -4 6 -8 183
-8 392 0 395 -2 411 -40 402 -7 -2 -15 3 -18 11 -2 8 0 11 5 8 5 -3 10 0 10 8
0 8 -3 14 -6 13 -3 0 -8 1 -11 2 -19 10 -114 5 -125 -6z m117 -3 c4 0 5 -8 2
-16 -9 -21 -91 -18 -97 4 -3 14 3 17 42 15 25 -1 49 -2 53 -3z"/>
<path d="M1086 5021 c8 -8 64 -10 64 -2 0 4 -16 7 -35 7 -19 0 -32 -2 -29 -5z"/>
<path d="M6117 4545 c-97 -34 -130 -124 -72 -196 11 -13 34 -30 50 -38 36 -18
24 -14 115 -30 41 -7 90 -19 108 -27 28 -11 33 -18 30 -41 -7 -63 -126 -75
-233 -23 l-48 23 -28 -34 c-15 -19 -25 -37 -21 -40 4 -3 32 -16 62 -29 65 -28
202 -36 266 -17 75 23 104 58 110 134 2 37 -2 48 -29 77 -35 37 -84 55 -186
70 -47 6 -106 29 -115 45 -12 19 13 50 49 60 46 12 109 4 157 -20 43 -22 48
-21 78 21 l21 30 -48 21 c-60 27 -208 35 -266 14z"/>
<path d="M7690 4543 c-102 -35 -168 -108 -177 -198 -11 -104 40 -183 150 -236
51 -24 69 -27 140 -25 114 3 188 40 245 122 75 109 19 265 -118 327 -59 26
-178 31 -240 10z m176 -70 c10 -4 28 -15 38 -25 11 -10 22 -18 26 -18 11 0 40
-58 45 -93 11 -69 -41 -144 -120 -170 -72 -24 -147 -5 -194 48 -71 81 -57 182
32 240 49 32 118 39 173 18z"/>
<path d="M9345 4551 c-68 -17 -109 -54 -119 -107 -14 -70 38 -130 129 -150 11
-3 45 -9 75 -15 85 -16 119 -29 125 -48 9 -28 -3 -48 -37 -62 -57 -23 -107
-18 -196 22 -48 22 -52 21 -82 -21 l-21 -29 43 -20 c71 -31 116 -40 201 -38
124 3 191 46 202 126 6 48 -17 94 -57 119 -20 12 -78 31 -130 41 -113 24 -148
38 -148 62 0 52 117 69 205 30 l50 -22 26 33 c25 29 26 34 11 44 -53 35 -201
54 -277 35z"/>
<path d="M3094 4320 l0 -231 55 3 54 3 -1 220 c0 121 -1 223 -1 228 -1 4 -25
7 -54 7 l-53 0 0 -230z"/>
<path d="M3590 4320 l0 -230 53 0 53 0 -1 135 c0 74 1 135 3 135 4 0 46 -31
172 -128 41 -32 91 -69 110 -82 19 -13 44 -32 54 -42 39 -36 36 -55 38 292 l0
145 -54 3 -54 3 1 -131 c1 -72 -2 -133 -6 -136 -4 -2 -13 1 -21 8 -7 7 -51 42
-98 78 -47 35 -86 68 -88 72 -2 4 -10 8 -18 8 -8 0 -14 4 -14 8 0 8 -114 92
-125 92 -3 0 -5 -103 -5 -230z"/>
<path d="M4407 4538 c6 -7 23 -35 38 -63 15 -27 70 -125 123 -217 76 -132 98
-165 109 -157 7 7 13 15 13 19 0 4 30 59 66 121 37 63 82 143 102 179 19 36
43 77 54 92 10 14 18 29 18 32 0 3 -26 6 -58 6 l-57 0 -60 -107 c-33 -60 -63
-109 -67 -111 -4 -2 -8 -10 -8 -17 0 -46 -31 -8 -84 102 -6 13 -14 23 -18 23
-5 0 -8 5 -8 11 0 6 -9 24 -21 40 -11 16 -17 29 -13 29 3 0 1 7 -6 15 -16 20
-138 22 -123 3z"/>
<path d="M5255 4320 l0 -230 204 2 205 3 -1 28 c-1 15 -1 30 -2 35 -1 4 -67 7
-148 7 l-148 0 -2 57 -2 56 82 0 c45 0 106 1 135 1 l52 1 0 38 0 37 -132 0
-133 0 0 60 0 60 145 0 c87 0 147 4 151 10 4 5 6 21 4 35 l-2 25 -204 3 -204
2 0 -230z"/>
<path d="M6783 4515 c0 -39 -3 -37 90 -37 45 -1 60 -4 67 -19 7 -12 7 -20 0
-24 -6 -4 -7 -11 -4 -17 4 -6 6 -82 6 -169 l0 -159 53 0 53 0 0 148 c0 81 1
168 1 193 l1 47 77 -1 78 -1 1 37 1 37 -212 0 -212 0 0 -35z"/>
<path d="M8435 4320 l0 -230 52 0 c59 0 55 -6 54 93 l0 57 53 0 c49 0 56 -3
79 -32 14 -18 42 -52 64 -76 38 -43 39 -43 100 -40 l61 3 -54 60 c-72 79 -80
93 -57 102 22 8 82 70 84 86 12 104 -10 153 -86 188 -33 15 -66 19 -195 19
l-155 0 0 -230z m315 130 c30 -34 26 -83 -8 -112 -24 -20 -38 -23 -112 -23
l-85 1 -2 69 c-1 39 0 75 2 82 3 8 31 11 94 9 81 -2 93 -5 111 -26z"/>
</g>
</svg>
